<?xml version="1.0" encoding="UTF-8" standalone="no"?>
<svg
   xmlns:dc="http://purl.org/dc/elements/1.1/"
   xmlns:cc="http://creativecommons.org/ns#"
   xmlns:rdf="http://www.w3.org/1999/02/22-rdf-syntax-ns#"
   xmlns:svg="http://www.w3.org/2000/svg"
   xmlns="http://www.w3.org/2000/svg"
   xmlns:sodipodi="http://sodipodi.sourceforge.net/DTD/sodipodi-0.dtd"
   xmlns:inkscape="http://www.inkscape.org/namespaces/inkscape"
   width="265.41626"
   height="34.661503"
   viewBox="0 0 70.224717 9.1708565"
   version="1.1"
   id="svg16"
   inkscape:version="1.0.1 (c497b03c, 2020-09-10)"
   sodipodi:docname="borg.svg">
  <defs
     id="defs10">
    <clipPath
       id="clip50">
      <path
         d="m 546,776 h 13.27734 v 13 H 546 Z m 0,0"
         id="path566" />
    </clipPath>
    <clipPath
       id="clip51">
      <path
         d="m 366,769.38281 h 1 V 770 h -1 z m 0,0"
         id="path569" />
    </clipPath>
    <clipPath
       id="clip52">
      <path
         d="m 365,769.38281 h 2 V 770 h -2 z m 0,0"
         id="path572" />
    </clipPath>
    <clipPath
       id="clip53">
      <path
         d="m 365,769.38281 h 1 V 771 h -1 z m 0,0"
         id="path575" />
    </clipPath>
    <clipPath
       id="clip54">
      <path
         d="m 365,769.38281 h 1 V 770 h -1 z m 0,0"
         id="path578" />
    </clipPath>
    <clipPath
       id="clip55">
      <path
         d="m 365,769.38281 h 1 V 770 h -1 z m 0,0"
         id="path581" />
    </clipPath>
    <clipPath
       id="clip56">
      <path
         d="m 365,769.38281 h 1 V 771 h -1 z m 0,0"
         id="path584" />
    </clipPath>
    <clipPath
       id="clip57">
      <path
         d="m 364,769.38281 h 2 V 770 h -2 z m 0,0"
         id="path587" />
    </clipPath>
    <clipPath
       id="clip58">
      <path
         d="m 364,769.38281 h 2 V 771 h -2 z m 0,0"
         id="path590" />
    </clipPath>
    <clipPath
       id="clip59">
      <path
         d="m 364,769.38281 h 1 V 771 h -1 z m 0,0"
         id="path593" />
    </clipPath>
    <clipPath
       id="clip60">
      <path
         d="m 364,769.38281 h 1 V 770 h -1 z m 0,0"
         id="path596" />
    </clipPath>
    <clipPath
       id="clip61">
      <path
         d="m 363,769.38281 h 2 V 770 h -2 z m 0,0"
         id="path599" />
    </clipPath>
    <clipPath
       id="clip62">
      <path
         d="m 363,769.38281 h 2 V 771 h -2 z m 0,0"
         id="path602" />
    </clipPath>
    <clipPath
       id="clip63">
      <path
         d="m 363,769.38281 h 2 V 770 h -2 z m 0,0"
         id="path605" />
    </clipPath>
    <clipPath
       id="clip64">
      <path
         d="m 363,793 h 2 v 1.23437 h -2 z m 0,0"
         id="path608" />
    </clipPath>
    <clipPath
       id="clip65">
      <path
         d="m 363,769.38281 h 2 V 770 h -2 z m 0,0"
         id="path611" />
    </clipPath>
    <clipPath
       id="clip66">
      <path
         d="m 363,769.38281 h 1 V 771 h -1 z m 0,0"
         id="path614" />
    </clipPath>
    <clipPath
       id="clip67">
      <path
         d="m 362,793 h 2 v 1.23437 h -2 z m 0,0"
         id="path617" />
    </clipPath>
    <clipPath
       id="clip68">
      <path
         d="m 362,769.38281 h 2 V 771 h -2 z m 0,0"
         id="path620" />
    </clipPath>
    <clipPath
       id="clip69">
      <path
         d="m 362,793 h 2 v 1.23437 h -2 z m 0,0"
         id="path623" />
    </clipPath>
    <clipPath
       id="clip70">
      <path
         d="m 362,769.38281 h 2 V 771 h -2 z m 0,0"
         id="path626" />
    </clipPath>
    <clipPath
       id="clip71">
      <path
         d="m 361,769.38281 h 2 V 771 h -2 z m 0,0"
         id="path629" />
    </clipPath>
    <clipPath
       id="clip72">
      <path
         d="m 351.5,781 h 1.5 v 2 h -1.5 z m 0,0"
         id="path632" />
    </clipPath>
    <clipPath
       id="clip73">
      <path
         d="m 351.5,782 h 1.5 v 2 h -1.5 z m 0,0"
         id="path635" />
    </clipPath>
    <clipPath
       id="clip74">
      <path
         d="m 351.5,782 h 1.5 v 1 h -1.5 z m 0,0"
         id="path638" />
    </clipPath>
    <clipPath
       id="clip75">
      <path
         d="m 351.5,780 h 0.5 v 1 h -0.5 z m 0,0"
         id="path641" />
    </clipPath>
    <clipPath
       id="clip76">
      <path
         d="M 351.5,769.38281 H 378 v 24.85156 h -26.5 z m 0,0"
         id="path644" />
    </clipPath>
    <clipPath
       id="clip77">
      <rect
         x="0"
         y="0"
         width="27"
         height="26"
         id="rect713" />
    </clipPath>
    <clipPath
       id="clip78">
      <path
         d="m 25,11 h 1.273438 v 2 H 25 Z m 0,0"
         id="path647" />
    </clipPath>
    <clipPath
       id="clip79">
      <path
         d="m 25,12 h 1.273438 v 2 H 25 Z m 0,0"
         id="path650" />
    </clipPath>
    <clipPath
       id="clip80">
      <path
         d="m 25,13 h 1.273438 v 2 H 25 Z m 0,0"
         id="path653" />
    </clipPath>
    <clipPath
       id="clip81">
      <path
         d="m 25,14 h 1.273438 v 2 H 25 Z m 0,0"
         id="path656" />
    </clipPath>
    <clipPath
       id="clip82">
      <path
         d="m 25,11 h 1.273438 v 3 H 25 Z m 0,0"
         id="path659" />
    </clipPath>
    <clipPath
       id="clip83">
      <path
         d="m 15,0.382812 h 2 V 2 h -2 z m 0,0"
         id="path662" />
    </clipPath>
    <clipPath
       id="clip84">
      <path
         d="m 15,0.382812 h 1 V 1 h -1 z m 0,0"
         id="path665" />
    </clipPath>
    <clipPath
       id="clip85">
      <path
         d="m 14,0.382812 h 2 V 1 h -2 z m 0,0"
         id="path668" />
    </clipPath>
    <clipPath
       id="clip86">
      <path
         d="m 14,24 h 1 v 1.121094 h -1 z m 0,0"
         id="path671" />
    </clipPath>
    <clipPath
       id="clip87">
      <path
         d="m 13,0.382812 h 2 V 1 h -2 z m 0,0"
         id="path674" />
    </clipPath>
    <clipPath
       id="clip88">
      <path
         d="m 13,0.382812 h 2 V 2 h -2 z m 0,0"
         id="path677" />
    </clipPath>
    <clipPath
       id="clip89">
      <path
         d="m 13,0.382812 h 1 V 2 h -1 z m 0,0"
         id="path680" />
    </clipPath>
    <clipPath
       id="clip90">
      <path
         d="m 13,24 h 1 v 1.121094 h -1 z m 0,0"
         id="path683" />
    </clipPath>
    <clipPath
       id="clip91">
      <path
         d="m 12,0.382812 h 2 V 2 h -2 z m 0,0"
         id="path686" />
    </clipPath>
    <clipPath
       id="clip92">
      <path
         d="m 12,0.382812 h 1 V 1 h -1 z m 0,0"
         id="path689" />
    </clipPath>
    <clipPath
       id="clip93">
      <path
         d="m 11,0.382812 h 1 V 2 h -1 z m 0,0"
         id="path692" />
    </clipPath>
    <clipPath
       id="clip94">
      <path
         d="m 11,24 h 1 v 1.121094 h -1 z m 0,0"
         id="path695" />
    </clipPath>
    <clipPath
       id="clip95">
      <path
         d="m 10,24 h 2 v 1.121094 h -2 z m 0,0"
         id="path698" />
    </clipPath>
    <clipPath
       id="clip96">
      <path
         d="M 0.585938,13 H 2 v 1 H 0.585938 Z m 0,0"
         id="path701" />
    </clipPath>
    <clipPath
       id="clip97">
      <path
         d="M 0.585938,12 H 2 v 1 H 0.585938 Z m 0,0"
         id="path704" />
    </clipPath>
    <clipPath
       id="clip98">
      <path
         d="M 0.585938,13 H 1 v 2 H 0.585938 Z m 0,0"
         id="path707" />
    </clipPath>
    <clipPath
       id="clip99">
      <path
         d="M 0.585938,11 H 1 v 1 H 0.585938 Z m 0,0"
         id="path710" />
    </clipPath>
    <clipPath
       id="clipPath17066">
      <rect
         x="0"
         y="0"
         width="27"
         height="26"
         id="rect17064" />
    </clipPath>
    <clipPath
       id="clipPath17070">
      <path
         d="m 25,11 h 1.273438 v 2 H 25 Z m 0,0"
         id="path17068" />
    </clipPath>
    <clipPath
       id="clipPath17074">
      <path
         d="m 25,12 h 1.273438 v 2 H 25 Z m 0,0"
         id="path17072" />
    </clipPath>
    <clipPath
       id="clipPath17078">
      <path
         d="m 25,13 h 1.273438 v 2 H 25 Z m 0,0"
         id="path17076" />
    </clipPath>
    <clipPath
       id="clipPath17082">
      <path
         d="m 25,14 h 1.273438 v 2 H 25 Z m 0,0"
         id="path17080" />
    </clipPath>
    <clipPath
       id="clipPath17086">
      <path
         d="m 25,11 h 1.273438 v 3 H 25 Z m 0,0"
         id="path17084" />
    </clipPath>
    <clipPath
       id="clipPath17090">
      <path
         d="m 15,0.382812 h 2 V 2 h -2 z m 0,0"
         id="path17088" />
    </clipPath>
    <clipPath
       id="clipPath17094">
      <path
         d="m 15,0.382812 h 1 V 1 h -1 z m 0,0"
         id="path17092" />
    </clipPath>
    <clipPath
       id="clipPath17098">
      <path
         d="m 14,0.382812 h 2 V 1 h -2 z m 0,0"
         id="path17096" />
    </clipPath>
    <clipPath
       id="clipPath17102">
      <path
         d="m 14,24 h 1 v 1.121094 h -1 z m 0,0"
         id="path17100" />
    </clipPath>
    <clipPath
       id="clipPath17106">
      <path
         d="m 13,0.382812 h 2 V 1 h -2 z m 0,0"
         id="path17104" />
    </clipPath>
    <clipPath
       id="clipPath17110">
      <path
         d="m 13,0.382812 h 2 V 2 h -2 z m 0,0"
         id="path17108" />
    </clipPath>
    <clipPath
       id="clipPath17114">
      <path
         d="m 13,0.382812 h 1 V 2 h -1 z m 0,0"
         id="path17112" />
    </clipPath>
    <clipPath
       id="clipPath17118">
      <path
         d="m 13,24 h 1 v 1.121094 h -1 z m 0,0"
         id="path17116" />
    </clipPath>
    <clipPath
       id="clipPath17122">
      <path
         d="m 12,0.382812 h 2 V 2 h -2 z m 0,0"
         id="path17120" />
    </clipPath>
    <clipPath
       id="clipPath17126">
      <path
         d="m 12,0.382812 h 1 V 1 h -1 z m 0,0"
         id="path17124" />
    </clipPath>
    <clipPath
       id="clipPath17130">
      <path
         d="m 11,0.382812 h 1 V 2 h -1 z m 0,0"
         id="path17128" />
    </clipPath>
    <clipPath
       id="clipPath17134">
      <path
         d="m 11,24 h 1 v 1.121094 h -1 z m 0,0"
         id="path17132" />
    </clipPath>
    <clipPath
       id="clipPath17138">
      <path
         d="m 10,24 h 2 v 1.121094 h -2 z m 0,0"
         id="path17136" />
    </clipPath>
    <clipPath
       id="clipPath17142">
      <path
         d="M 0.585938,13 H 2 v 1 H 0.585938 Z m 0,0"
         id="path17140" />
    </clipPath>
    <clipPath
       id="clipPath17146">
      <path
         d="M 0.585938,12 H 2 v 1 H 0.585938 Z m 0,0"
         id="path17144" />
    </clipPath>
    <clipPath
       id="clipPath17150">
      <path
         d="M 0.585938,13 H 1 v 2 H 0.585938 Z m 0,0"
         id="path17148" />
    </clipPath>
    <clipPath
       id="clipPath17154">
      <path
         d="M 0.585938,11 H 1 v 1 H 0.585938 Z m 0,0"
         id="path17152" />
    </clipPath>
    <clipPath
       id="clip100">
      <path
         d="m 351.5,781 h 0.5 v 1 h -0.5 z m 0,0"
         id="path1117" />
    </clipPath>
    <clipPath
       id="clip1-8">
      <path
         d="m 437,717 h 17 v 19.35937 h -17 z m 0,0"
         id="path27431" />
    </clipPath>
  </defs>
  <sodipodi:namedview
     id="base"
     pagecolor="#00ffff"
     bordercolor="#666666"
     borderopacity="1.0"
     inkscape:pageopacity="0"
     inkscape:pageshadow="2"
     inkscape:zoom="1.203689"
     inkscape:cx="344.57183"
     inkscape:cy="9.4188826"
     inkscape:document-units="px"
     inkscape:current-layer="layer1"
     inkscape:document-rotation="0"
     showgrid="false"
     units="px"
     lock-margins="true"
     fit-margin-top="0.5"
     fit-margin-left="0.5"
     fit-margin-right="0.5"
     fit-margin-bottom="0.5"
     inkscape:window-width="1440"
     inkscape:window-height="872"
     inkscape:window-x="0"
     inkscape:window-y="28"
     inkscape:window-maximized="0" />
  <metadata
     id="metadata13">
    <rdf:RDF>
      <cc:Work
         rdf:about="">
        <dc:format>image/svg+xml</dc:format>
        <dc:type
           rdf:resource="http://purl.org/dc/dcmitype/StillImage" />
        <dc:title></dc:title>
      </cc:Work>
    </rdf:RDF>
  </metadata>
  <g
     inkscape:label="Layer 1"
     inkscape:groupmode="layer"
     id="layer1"
     transform="translate(33.836892,-120.01286)">
    <g
       id="g28683"
       transform="translate(-140.3602,-116.16042)">
      <path
         style="fill:#21307d;fill-opacity:1;fill-rule:nonzero;stroke:none;stroke-width:0.352778"
         d="m 108.94039,236.34417 1.20992,1.23472 1.20991,-1.23472 h 2.26963 v 3.15019 l -0.9412,-0.008 -0.3197,0.37896 0.3197,0.34451 h 0.9412 v 0.72209 h -1.22783 l -2.25998,-2.24345 v 0.69729 l 2.03398,2.06706 1.45383,0.008 v 0.68075 h -1.74873 c -0.58704,-0.53743 -1.15066,-1.1672 -1.73908,-1.70601 v 0.66421 l 1.57096,1.57924 1.91685,0.01 v 0.68075 h -2.21864 l -1.25263,-1.22783 -1.18374,1.22783 h -2.31924 v -3.15984 l 0.97427,-0.008 0.33624,-0.33624 -0.33624,-0.37896 h -0.97427 v -0.6711 h 1.27744 l 0.53744,0.52089 0.36104,-0.37069 -0.66421,-0.65457 h -1.51171 v -0.74 h 1.73082 l 0.91088,0.89434 0.35002,-0.3569 -1.02526,-1.03353 h -1.96646 v -0.73036 z m 0,0"
         id="path27464" />
      <path
         style="fill:#21307d;fill-opacity:1;fill-rule:nonzero;stroke:none;stroke-width:0.352778"
         d="m 143.75239,239.894 0.0193,0.011 0.89021,-3.58703 2.23931,-0.0124 0.0427,0.0551 0.84336,3.46439 0.0303,0.0289 c 0.31833,-1.16306 0.55397,-2.36333 0.82958,-3.54431 l 2.53008,-0.001 -1.9265,7.04867 -2.49838,0.001 -0.95774,-3.39135 -0.93982,3.3886 -2.48047,0.001 -1.95819,-7.04729 2.5411,0.006 z m 0,0"
         id="path27466" />
      <path
         style="fill:#21307d;fill-opacity:1;fill-rule:nonzero;stroke:none;stroke-width:0.352778"
         d="m 166.24473,239.08371 0.0937,0.47542 -0.004,3.78134 h -2.28892 l 0.007,-3.1309 c -0.0358,-0.11438 -0.13367,-0.24667 -0.25908,-0.27561 -0.20532,-0.0717 -0.43407,0.0138 -0.57188,0.17776 -0.15572,0.16813 -0.13091,0.22738 -0.12954,0.63804 0,0.87367 0.0262,2.51078 0.008,2.59622 l -2.19246,-0.001 0.011,-4.94991 2.16214,0.001 c 0.0248,0.22737 0.04,0.31833 0.0441,0.61874 0.47267,-0.56776 1.1107,-0.87781 1.87552,-0.76206 0.49333,0.0758 1.01285,0.35002 1.24436,0.83096"
         id="path27468" />
      <path
         style="fill:#21307d;fill-opacity:1;fill-rule:nonzero;stroke:none;stroke-width:0.352778"
         d="m 160.59339,238.28858 -0.008,1.87827 c -0.55535,-0.0868 -1.19338,-0.0234 -1.49655,0.514 0,0 -0.10749,0.0358 -0.14883,0.37345 v 2.28892 l -2.2586,-0.001 0.011,-4.93062 2.22139,-0.006 c 0.0124,0.21635 0.0221,0.38309 0.0331,0.62563 0.34726,-0.58567 0.97703,-0.8599 1.64675,-0.74277"
         id="path27470" />
      <path
         style="fill:#21307d;fill-opacity:1;fill-rule:nonzero;stroke:none;stroke-width:0.352778"
         d="m 134.94121,238.28858 -0.008,1.87827 c -0.55397,-0.0868 -1.192,-0.0234 -1.49655,0.514 0,0 -0.10749,0.0358 -0.14883,0.37345 v 2.28892 l -2.2586,-0.001 0.011,-4.93062 2.2214,-0.006 c 0.0138,0.21635 0.0221,0.38309 0.0345,0.62563 0.34588,-0.58567 0.97703,-0.8599 1.64538,-0.74277"
         id="path27472" />
      <path
         style="fill:#21307d;fill-opacity:1;fill-rule:nonzero;stroke:none;stroke-width:0.352778"
         d="m 176.61447,240.23988 c -0.49472,-0.12402 -1.07212,-0.0482 -1.41387,0.3266 -0.113,0.15709 -0.19706,0.32521 -0.20119,0.52503 l 0.005,2.2462 h -2.33026 l -0.001,-4.92648 2.23931,-0.006 c 0.0372,0.18604 -0.01,0.4396 0.0455,0.6022 0.35829,-0.58566 1.03215,-0.81304 1.65778,-0.70142 z m 0,0"
         id="path27474" />
      <path
         style="fill:#21307d;fill-opacity:1;fill-rule:nonzero;stroke:none;stroke-width:0.352778"
         d="m 169.30122,239.65697 c -0.24667,0.11025 -0.4079,0.38861 -0.38723,0.63528 l 1.1672,-0.007 c -0.0124,-0.22187 -0.0689,-0.41479 -0.23151,-0.55811 -0.1447,-0.11437 -0.37345,-0.12402 -0.54846,-0.0703 m 2.6417,-0.27147 c 0.31006,0.52779 0.46577,1.04455 0.41341,1.81625 l -3.46852,0.006 c -0.0413,0.19844 0.003,0.43959 0.13642,0.60082 0.15021,0.18604 0.33762,0.26459 0.57878,0.24392 0.22324,0 0.40239,-0.19431 0.51676,-0.37483 l 2.209,-0.0124 c -0.0923,0.70555 -0.76344,1.29949 -1.40698,1.5558 -1.11759,0.39687 -2.67064,0.42306 -3.58566,-0.46302 -0.70831,-0.65319 -0.91225,-1.71152 -0.62149,-2.64032 0.17639,-0.7717 0.85989,-1.43178 1.59301,-1.7005 1.2678,-0.39274 2.90077,-0.2508 3.63527,0.96876"
         id="path27476" />
      <path
         style="fill:#21307d;fill-opacity:1;fill-rule:nonzero;stroke:none;stroke-width:0.352778"
         d="m 127.67068,240.16409 c -0.25218,0.062 -0.47955,0.28525 -0.5457,0.53881 -0.0827,0.31971 0.004,0.63941 0.23427,0.86541 0.16261,0.0965 0.32522,0.17915 0.53605,0.14194 0.27699,-0.0248 0.50988,-0.24116 0.59256,-0.48231 0.10473,-0.36243 0.0606,-0.70694 -0.29903,-0.96325 -0.1447,-0.10198 -0.32522,-0.113 -0.51815,-0.1006 m 2.81671,-0.29077 c 0.4079,0.94947 0.20395,2.15388 -0.52089,2.8801 -0.89297,0.89022 -2.39779,1.00735 -3.51951,0.53744 -0.91778,-0.35691 -1.53652,-1.32292 -1.57786,-2.28617 0.0124,-0.95773 0.51401,-1.83968 1.36013,-2.32061 1.06384,-0.5526 2.62929,-0.48921 3.57325,0.27147 0.32659,0.26872 0.52641,0.58015 0.68488,0.91777"
         id="path27478" />
      <g
         clip-path="url(#clip1-8)"
         clip-rule="nonzero"
         id="g27482"
         transform="matrix(0.35277778,0,0,0.35277778,-19.337053,-14.559381)">
        <path
           style="fill:#21307d;fill-opacity:1;fill-rule:nonzero;stroke:none"
           d="m 446.3125,722.1875 c -0.64844,-0.28516 -1.50391,-0.0781 -2.01172,0.45312 -0.52734,0.5 -0.67578,1.26954 -0.46875,1.96875 0.22656,0.67969 0.69141,1.1836 1.5625,1.26954 0.59766,0.10156 1.00781,-0.043 1.46484,-0.41797 0.78125,-0.64844 0.74219,-1.40235 0.57032,-2.1875 -0.17578,-0.47657 -0.63672,-0.91797 -1.11719,-1.08594 m 1.00781,-3.53906 c 0.14844,-0.79297 0.0195,-0.75 0.10938,-1.44922 0,0 4.28515,0.0117 6.55468,-0.0195 l -0.0117,13.6914 c 0.043,2.0625 -1.51954,3.69532 -3.28907,4.47266 -2.8789,1.29297 -6.63281,1.34766 -9.59375,0.1875 -1.5039,-0.66016 -3.13281,-2.22266 -3.44922,-3.875 h 6.29688 c 0.25781,0.375 0.65234,0.78125 1.08203,0.89844 0.95703,0.18359 1.82422,-0.19532 2.33203,-1.03516 0.28906,-0.63281 0.28516,-1.35156 0.14453,-2.05078 -1.78515,1.49609 -4.80468,1.75 -6.84375,0.60156 -2.53515,-1.38672 -3.26172,-4.11328 -3.10547,-6.86328 0.0899,-2.28906 1.33985,-4.58203 3.53516,-5.55078 1.92578,-0.89844 4.72656,-0.62109 6.23828,0.99219"
           id="path27480" />
      </g>
      <path
         style="fill:#21307d;fill-opacity:1;fill-rule:nonzero;stroke:none;stroke-width:0.352778"
         d="m 153.214,240.18752 c -0.21635,0.0193 -0.4079,0.11024 -0.55811,0.29214 -0.1254,0.19982 -0.15985,0.49472 -0.0565,0.71107 0.0978,0.17914 0.25493,0.28663 0.43546,0.35829 0.27147,0.0524 0.53054,-0.0138 0.70969,-0.22049 0.17914,-0.19292 0.19568,-0.53054 0.0978,-0.76481 -0.12126,-0.25218 -0.38033,-0.34175 -0.62838,-0.3762 m 0.62012,-1.31603 c 0.0289,-0.23289 0.004,-0.3197 0.04,-0.4644 h 2.32337 c 0.0207,1.51171 0.011,3.27009 0.008,4.93751 l -2.33716,10e-4 c -0.006,-0.28112 -0.0358,-0.26596 -0.0317,-0.57327 -0.42581,0.5085 -1.05695,0.83096 -1.77353,0.71521 -0.67524,-0.10612 -1.31603,-0.65595 -1.53651,-1.30501 -0.36656,-1.04042 -0.35554,-2.51492 0.47128,-3.33899 0.52642,-0.54432 1.38631,-0.74138 2.11116,-0.46302 0.27698,0.0951 0.46716,0.24254 0.72485,0.49059"
         id="path27484" />
      <path
         style="fill:#21307d;fill-opacity:1;fill-rule:nonzero;stroke:none;stroke-width:0.352778"
         d="m 120.89211,240.59128 -0.005,1.12586 c 0.42168,-0.0565 1.03629,0.1819 1.16582,-0.36656 0.0482,-0.1695 0.0468,-0.38585 -0.0565,-0.52365 -0.22463,-0.36105 -0.71796,-0.2012 -1.10381,-0.23565 m -0.007,-2.61965 -0.001,0.98117 c 0.39688,-0.0551 0.93432,0.15158 1.13,-0.29491 0.0303,-0.11988 0.0758,-0.19981 -10e-4,-0.40238 -0.18328,-0.44511 -0.73588,-0.23151 -1.12724,-0.28388 m 1.04456,-1.63711 c 0.8847,-0.011 1.8259,0.2136 2.2586,1.07211 0.21222,0.50437 0.19155,1.17961 -0.14883,1.62058 -0.20257,0.33211 -0.5457,0.44235 -0.82131,0.65457 0.50712,0.17776 1.08589,0.42168 1.3174,0.97427 0.31144,0.67937 0.11714,1.52411 -0.38033,2.05603 -0.5209,0.48507 -1.17685,0.63803 -1.90032,0.64217 l -3.90122,0.003 -0.0124,-7.03075 z m 0,0"
         id="path27486" />
    </g>
  </g>
</svg>
